<?xml version="1.0" standalone="no"?>
<!DOCTYPE svg PUBLIC "-//W3C//DTD SVG 20010904//EN"
 "http://www.w3.org/TR/2001/REC-SVG-20010904/DTD/svg10.dtd">
<svg version="1.0" xmlns="http://www.w3.org/2000/svg"
 width="486.000000pt" height="486.000000pt" viewBox="0 0 486.000000 486.000000"
 preserveAspectRatio="xMidYMid meet">
<metadata>
Created by potrace 1.14, written by Peter Selinger 2001-2017
</metadata>
<g transform="translate(0.000000,486.000000) scale(0.100000,-0.100000)"
fill="#000000" stroke="none">
<path d="M3 2428 c0 -1385 1 -1518 16 -1519 42 -4 537 -5 547 -1 8 2 12 166
12 595 0 326 1 602 1 614 1 17 7 21 37 21 38 0 29 10 266 -282 32 -39 64 -78
71 -86 7 -8 31 -37 53 -65 21 -27 41 -52 44 -55 3 -3 64 -77 135 -165 71 -88
132 -162 135 -165 3 -3 75 -90 159 -195 85 -104 160 -197 168 -205 11 -13 70
-15 388 -15 206 0 375 2 375 5 0 6 -115 142 -535 635 -154 181 -309 363 -345
405 -114 136 -164 194 -200 236 -93 107 -147 170 -165 193 -10 14 -22 28 -25
31 -35 33 -35 35 82 172 62 73 115 135 118 138 3 3 64 75 135 160 71 85 132
157 135 160 3 3 53 61 110 130 57 69 116 139 131 155 15 17 94 109 175 205
209 249 228 271 239 284 32 35 105 124 105 127 0 2 -164 4 -365 4 -310 0 -367
-2 -378 -15 -8 -8 -49 -58 -92 -110 -42 -52 -85 -104 -94 -115 -9 -11 -47 -58
-85 -105 -38 -47 -86 -105 -106 -130 -21 -25 -142 -173 -270 -330 -372 -457
-329 -410 -371 -401 l-32 6 1 585 c0 322 -1 592 -4 600 -3 13 -43 15 -288 15
l-283 0 0 -1517z"/>
<path d="M2586 3940 c-2 -5 0 -2992 3 -3020 1 -13 39 -15 284 -15 l282 0 3
631 2 632 562 -2 563 -1 1 -625 c1 -344 2 -627 3 -630 0 -3 129 -5 286 -5
l285 0 -2 1520 -3 1520 -282 0 c-183 0 -283 -3 -284 -10 -1 -5 -2 -287 -3
-625 l-1 -615 -562 -3 -563 -2 0 627 0 628 -286 0 c-157 0 -287 -2 -288 -5z"/>
</g>
</svg>
